Coordinates
version=1
nRows=27
nColumns=38
inDegrees=no

Units are S.I. units (second, meters, Newtons, ...)
If the header above contains a line with 'inDegrees', this indicates whether rotational values are in degrees (yes) or radians (no).

endheader
time	pelvis_tilt	pelvis_list	pelvis_rotation	pelvis_tx	pelvis_ty	pelvis_tz	hip_flexion_r	hip_adduction_r	hip_rotation_r	knee_angle_r	ankle_angle_r	subtalar_angle_r	mtp_angle_r	hip_flexion_l	hip_adduction_l	hip_rotation_l	knee_angle_l	ankle_angle_l	subtalar_angle_l	mtp_angle_l	lumbar_extension	lumbar_bending	lumbar_rotation	arm_flex_r	arm_add_r	arm_rot_r	elbow_flex_r	pro_sup_r	wrist_flex_r	wrist_dev_r	arm_flex_l	arm_add_l	arm_rot_l	elbow_flex_l	pro_sup_l	wrist_flex_l	wrist_dev_l
0	-0.23268	1.49044	-1.30118	0.730093	1.85881	0.938049	0.0933873	0.0180238	-0.349321	0.308381	0.137301	0	0	0.225022	-0.232118	-0.197299	1.17941	-0.0179305	0	0	-0.185936	0.0760149	-0.0370725	0.0711405	-0.356957	0.430722	0.731897	1.36287	0	0	-0.0877086	-0.367518	0.62703	0.746461	0.947198	0	0
0.01	-0.225488	1.49072	-1.31351	0.728704	1.8493	0.938732	0.0779784	0.0202811	-0.349776	0.299316	0.141329	0	0	0.243764	-0.245198	-0.223402	1.17287	1.24457e-05	0	0	-0.184948	0.0736685	-0.0332347	0.077681	-0.360983	0.430343	0.74544	1.36288	0	0	-0.1013	-0.36419	0.626297	0.747732	0.952869	0	0
0.02	-0.141367	1.49032	-1.40169	0.72752	1.84035	0.939978	0.0611559	0.0157859	-0.346664	0.29103	0.144216	0	0	0.257774	-0.235191	-0.228909	1.15369	0.0154702	0	0	-0.187631	0.0649466	-0.0282617	0.081808	-0.364283	0.422751	0.761505	1.35947	0	0	-0.109589	-0.36061	0.623378	0.747618	0.950888	0	0
0.03	-0.0261473	1.48804	-1.52118	0.726325	1.8317	0.941474	0.0431121	0.00872181	-0.341608	0.28229	0.146284	0	0	0.266966	-0.216544	-0.228378	1.12507	0.0284538	0	0	-0.192868	0.0532555	-0.0231765	0.0858005	-0.366766	0.413246	0.778672	1.35079	0	0	-0.116561	-0.356719	0.616386	0.747505	0.946932	0	0
0.04	-0.0015253	1.48677	-1.5512	0.725123	1.82228	0.942103	0.0257839	0.00953234	-0.337483	0.272379	0.149152	0	0	0.279621	-0.221745	-0.250263	1.10409	0.0404816	0	0	-0.193652	0.0494086	-0.0169816	0.0884376	-0.371612	0.407457	0.7959	1.34434	0	0	-0.126556	-0.352094	0.609726	0.748801	0.946745	0	0
0.05	0.0595411	1.48468	-1.61522	0.724205	1.81336	0.942955	0.00821115	0.00641436	-0.335305	0.262827	0.152614	0	0	0.290073	-0.214329	-0.259641	1.0744	0.0493747	0	0	-0.19642	0.0421208	-0.0129516	0.0920084	-0.37361	0.396783	0.809719	1.34856	0	0	-0.134099	-0.348126	0.602472	0.750826	0.937442	0	0
0.06	0.117001	1.48162	-1.67532	0.723312	1.80444	0.943745	-0.0106635	0.0035071	-0.33234	0.252014	0.156345	0	0	0.298243	-0.206076	-0.269102	1.04066	0.0562112	0	0	-0.200054	0.0346384	-0.00926884	0.0953184	-0.375141	0.385556	0.823684	1.35016	0	0	-0.141024	-0.344191	0.595024	0.75236	0.926478	0	0
0.07	0.157936	1.47882	-1.71902	0.722421	1.79544	0.94429	-0.0294041	0.00196128	-0.328349	0.240835	0.159942	0	0	0.305795	-0.200546	-0.28188	1.00512	0.062904	0	0	-0.203203	0.0283936	-0.00555384	0.0982725	-0.376877	0.376101	0.838296	1.35363	0	0	-0.14686	-0.341054	0.599039	0.747726	0.925464	0	0
0.08	0.186684	1.47565	-1.75084	0.721563	1.78637	0.944658	-0.0490581	0.00132464	-0.323972	0.228711	0.163523	0	0	0.311684	-0.196601	-0.297265	0.96728	0.0688638	0	0	-0.206819	0.0230828	-0.00146449	0.100663	-0.3789	0.366629	0.853883	1.36031	0	0	-0.15241	-0.337968	0.601093	0.744644	0.927337	0	0
0.09	0.216204	1.47394	-1.78253	0.720985	1.7773	0.944831	-0.0669044	0.000197717	-0.32115	0.217201	0.16708	0	0	0.318275	-0.190905	-0.310926	0.926102	0.0738672	0	0	-0.210498	0.0203281	-0.0040497	0.108754	-0.380758	0.363356	0.867748	1.37377	0	0	-0.158578	-0.288487	0.238513	0.726328	0.0878776	0	0
0.1	0.230679	1.4694	-1.79867	0.720555	1.76859	0.94489	-0.0873986	-0.00044445	-0.319046	0.20643	0.171208	0	0	0.32124	-0.185271	-0.324121	0.882953	0.0791133	0	0	-0.215069	0.0139434	0.00421015	0.106735	-0.382744	0.34624	0.881931	1.3787	0	0	-0.160215	-0.331391	0.603236	0.743431	0.90645	0	0
0.11	0.249367	1.47023	-1.82008	0.720182	1.75961	0.944605	-0.102161	-0.000500222	-0.314804	0.195602	0.174127	0	0	0.327762	-0.179784	-0.338304	0.836139	0.0834435	0	0	-0.215239	0.0118772	0.00578464	0.11118	-0.38482	0.340518	0.894436	1.38101	0	0	-0.160741	-0.281382	0.245056	0.718728	0.0790943	0	0
0.12	0.260899	1.46509	-1.83374	0.719564	1.75071	0.944346	-0.123993	-0.000837171	-0.312008	0.183666	0.178376	0	0	0.326331	-0.173783	-0.354652	0.786304	0.087974	0	0	-0.221835	0.00535653	0.00952997	0.11315	-0.384846	0.329114	0.906906	1.39428	0	0	-0.16716	-0.32272	0.593342	0.741181	0.903412	0	0
0.13	0.27458	1.46622	-1.8487	0.719314	1.74184	0.943448	-0.13733	-0.00068588	-0.311364	0.175443	0.183812	0	0	0.331607	-0.168056	-0.369932	0.73583	0.0929433	0	0	-0.221257	0.00287973	0.0118347	0.11588	-0.387286	0.325555	0.919014	1.38999	0	0	-0.168289	-0.319297	0.595576	0.739876	0.89098	0	0
0.14	0.28612	1.46714	-1.86177	0.719272	1.733	0.942429	-0.150589	-0.000739674	-0.309445	0.167764	0.18882	0	0	0.334741	-0.161025	-0.38494	0.68166	0.0975574	0	0	-0.221019	0.00069965	0.0149013	0.117494	-0.389381	0.318185	0.931002	1.3927	0	0	-0.167613	-0.315206	0.604273	0.732221	0.896248	0	0
0.15	0.29628	1.46638	-1.87143	0.719516	1.72431	0.941434	-0.16562	-0.000959667	-0.309122	0.159961	0.193453	0	0	0.334837	-0.150727	-0.395293	0.622752	0.099655	0	0	-0.223276	-0.00159559	0.0159862	0.119065	-0.390581	0.308607	0.942924	1.3928	0	0	-0.166164	-0.311066	0.607002	0.726851	0.916212	0	0
0.16	0.303208	1.46751	-1.87856	0.719734	1.71546	0.940093	-0.177659	-0.000689823	-0.308901	0.154976	0.199503	0	0	0.336273	-0.141494	-0.405052	0.564545	0.103942	0	0	-0.223086	-0.00313083	0.0174489	0.120912	-0.391937	0.302699	0.95263	1.39629	0	0	-0.16576	-0.306923	0.600982	0.728514	0.905267	0	0
0.17	0.333883	1.46906	-1.90997	0.720111	1.70649	0.938783	-0.187698	-0.0034906	-0.30823	0.151882	0.206599	0	0	0.334504	-0.126842	-0.412022	0.497073	0.102706	0	0	-0.223535	-0.00465415	0.0132708	0.127306	-0.391798	0.300315	0.961669	1.41542	0	0	-0.163017	-0.258501	0.246261	0.696228	0.0799827	0	0
0.18	0.345596	1.47194	-1.92175	0.720498	1.69766	0.937008	-0.196013	-0.00367759	-0.308095	0.150715	0.214614	0	0	0.334941	-0.115184	-0.416078	0.433917	0.105931	0	0	-0.22216	-0.00587524	0.0130039	0.130316	-0.392503	0.297678	0.969312	1.41648	0	0	-0.162337	-0.255277	0.247563	0.693414	0.0779334	0	0
0.19	0.373796	1.47346	-1.95031	0.721087	1.68867	0.935277	-0.204369	-0.00689318	-0.309828	0.151662	0.224481	0	0	0.329712	-0.0979736	-0.411886	0.360986	0.104506	0	0	-0.221237	-0.00910833	0.0132079	0.132271	-0.392427	0.292915	0.975665	1.41896	0	0	-0.160044	-0.251433	0.24876	0.687978	0.076964	0	0
0.2	0.40257	1.47467	-1.97981	0.721779	1.67954	0.93346	-0.212076	-0.0109813	-0.31284	0.154966	0.235646	0	0	0.321025	-0.0790939	-0.399352	0.282986	0.100706	0	0	-0.220434	-0.012366	0.0131397	0.134309	-0.391795	0.288305	0.980629	1.42338	0	0	-0.157828	-0.247292	0.248302	0.682114	0.0768431	0	0
0.21	0.414747	1.47569	-1.98952	0.722866	1.67063	0.931546	-0.219885	-0.0134122	-0.31958	0.160065	0.24726	0	0	0.30946	-0.0596639	-0.370176	0.20099	0.0911257	0	0	-0.221329	-0.0135311	0.0097281	0.137212	-0.391312	0.284857	0.985406	1.42906	0	0	-0.155738	-0.243987	0.247497	0.679439	0.0775517	0	0
0.22	0.419615	1.47574	-1.993	0.723898	1.66141	0.92963	-0.22875	-0.0160621	-0.326393	0.166165	0.259003	0	0	0.290473	-0.0407668	-0.328156	0.111339	0.0721099	0	0	-0.222984	-0.0146254	0.00689611	0.140001	-0.390894	0.283266	0.989121	1.43567	0	0	-0.154163	-0.240708	0.246507	0.677187	0.0849382	0	0
0.23	0.409249	1.47626	-1.98324	0.724663	1.65177	0.927555	-0.237825	-0.01737	-0.331218	0.17251	0.2702	0	0	0.269093	-0.0274744	-0.283098	0.0251762	0.0482778	0	0	-0.223806	-0.0147001	0.00614878	0.141987	-0.390664	0.283465	0.991649	1.43498	0	0	-0.152585	-0.23763	0.245431	0.673484	0.0807145	0	0
0.24	0.387146	1.47718	-1.95984	0.725185	1.64253	0.925202	-0.245139	-0.0139012	-0.328937	0.180017	0.277507	0	0	0.272176	-0.0254206	-0.265381	0	0.0441834	0	0	-0.225283	-0.0145079	0.00497222	0.143994	-0.389038	0.282998	0.991949	1.43375	0	0	-0.150819	-0.236277	0.245375	0.67283	0.0816376	0	0
0.25	0.365234	1.47648	-1.93822	0.725635	1.63312	0.923054	-0.254383	-0.0141486	-0.331942	0.188453	0.287724	0	0	0.281711	-0.0261542	-0.260499	0	0.0471081	0	0	-0.228092	-0.0154548	0.00475879	0.145799	-0.386595	0.283003	0.99082	1.43265	0	0	-0.148552	-0.235173	0.245176	0.670831	0.0828086	0	0
0.26	0.40258	1.4868	-1.97759	0.726492	1.62342	0.91972	-0.240441	-0.0217098	-0.352631	0.220559	0.313015	0	0	0.302463	-0.025291	-0.258955	0	0.0530879	0	0	-0.21637	-0.0167094	0.00302783	0.151297	-0.39703	0.33359	0.995996	1.20393	0	0	-0.159806	-0.226962	0.286339	0.688713	0.656051	0	0
